<svg xmlns="http://www.w3.org/2000/svg" xml:space="preserve" width="5432" height="5431" version="1.1"
    style="shape-rendering:geometricPrecision; text-rendering:geometricPrecision; image-rendering:optimizeQuality; fill-rule:evenodd; clip-rule:evenodd"><rect id="backgroundrect" x="0" y="0" fill="none" stroke="none"/>
 <defs>
  <style type="text/css">
   <![CDATA[
    .fil1 {fill:#1A00FF}
    .fil2 {fill:#FF0009}
    .fil0 {fill:#FEFEFE;fill-rule:nonzero}
   ]]>
  </style>
 </defs>
 
<g class="currentLayer" style=""><title>Layer 1</title>
  <metadata id="CorelCorpID_0Corel-Layer"/>
  
  
  
 <g class="" id="svg_8"><g id="_538096992" class="" opacity="0">
  </g><path class="fil1" d="M951.4354474544525,3236.461841106415 c156.79970598220825,0 297.6921954154968,69.31001496315002 394.27172446250916,179.5243010520935 c31.814433097839355,36.359352111816406 67.0375554561615,74.99116373062134 105.66936707496643,114.75920510292053 c95.44329929351807,103.3969075679779 232.92709946632385,168.16200351715088 385.18188643455505,168.16200351715088 c164.7533142566681,0 311.326952457428,-76.1273934841156 407.9064815044403,-194.29528784751892 c27.269514083862305,-32.95066285133362 48.857879400253296,-61.356406688690186 78.39985299110413,-94.3070695400238 c96.57952904701233,-106.8055968284607 235.19955897331238,-173.8431522846222 389.7268054485321,-173.8431522846222 l3.408689260482788,1.1362297534942627 l2.2724595069885254,-1.1362297534942627 c154.52724647521973,0 294.28350615501404,67.0375554561615 390.86303520202637,173.8431522846222 c29.54197359085083,32.95066285133362 51.13033890724182,61.356406688690186 77.26362323760986,94.3070695400238 c96.57952904701233,118.16789436340332 244.28939700126648,194.29528784751892 409.04271125793457,194.29528784751892 c151.11855721473694,0 288.6023573875427,-64.76509594917297 385.18188643455505,-168.16200351715088 c37.49558186531067,-39.768041372299194 72.71870422363281,-78.39985299110413 104.53313732147217,-114.75920510292053 c96.57952904701233,-110.21428608894348 237.4720184803009,-179.5243010520935 395.4079542160034,-179.5243010520935 c290.87481689453125,0 526.0743758678436,236.33578872680664 526.0743758678436,527.2106056213379 c0,290.87481689453125 -235.19955897331238,526.0743758678436 -526.0743758678436,526.0743758678436 c-163.61708450317383,0 -309.05449295043945,-73.85493397712708 -405.6340219974518,-190.88659858703613 c-31.814433097839355,-37.49558186531067 -48.857879400253296,-59.08394718170166 -80.67231249809265,-95.44329929351807 c-96.57952904701233,-112.486745595932 -239.74447798728943,-184.06922006607056 -398.8166434764862,-184.06922006607056 c-177.25184154510498,0 -334.05154752731323,87.48969101905823 -429.4948468208313,221.56480193138123 c-22.724595069885254,37.49558186531067 -39.768041372299194,59.08394718170166 -71.58247447013855,90.89838027954102 c-95.44329929351807,97.71575880050659 -228.3821804523468,157.93593573570251 -376.09204840660095,157.93593573570251 l-2.2724595069885254,0 l-3.408689260482788,0 c-146.5736382007599,0 -279.5125193595886,-60.22017693519592 -374.9558186531067,-157.93593573570251 c-31.814433097839355,-31.814433097839355 -48.857879400253296,-53.40279841423035 -71.58247447013855,-90.89838027954102 c-95.44329929351807,-134.075110912323 -252.24300527572632,-221.56480193138123 -429.4948468208313,-221.56480193138123 c-160.20839524269104,0 -303.37334418296814,71.58247447013855 -399.95287322998047,184.06922006607056 c-31.814433097839355,36.359352111816406 -48.857879400253296,57.9477174282074 -80.67231249809265,95.44329929351807 c-96.57952904701233,117.03166460990906 -242.01693749427795,190.88659858703613 -404.4977922439575,190.88659858703613 c-290.87481689453125,0 -527.2106056213379,-235.19955897331238 -527.2106056213379,-526.0743758678436 c0,-290.87481689453125 236.33578872680664,-527.2106056213379 527.2106056213379,-527.2106056213379 zm2645.1428661346436,-1119.1863071918488 c-156.79970598220825,0 -298.8284251689911,69.31001496315002 -395.4079542160034,178.38807129859924 c-31.814433097839355,36.359352111816406 -67.0375554561615,74.99116373062134 -104.53313732147217,115.8954348564148 c-96.57952904701233,103.3969075679779 -232.92709946632385,167.02577376365662 -385.18188643455505,167.02577376365662 c-164.7533142566681,0 -311.326952457428,-74.99116373062134 -407.9064815044403,-193.15905809402466 c-27.269514083862305,-34.08689260482788 -48.857879400253296,-62.49263644218445 -78.39985299110413,-95.44329929351807 c-96.57952904701233,-105.66936707496643 -235.19955897331238,-172.70692253112793 -390.86303520202637,-172.70692253112793 c-290.87481689453125,0 -526.0743758678436,235.19955897331238 -526.0743758678436,526.0743758678436 c0,290.87481689453125 235.19955897331238,526.0743758678436 526.0743758678436,526.0743758678436 c147.70986795425415,0 280.6487491130829,-60.22017693519592 376.09204840660095,-156.79970598220825 c31.814433097839355,-32.95066285133362 48.857879400253296,-54.53902816772461 71.58247447013855,-90.89838027954102 c95.44329929351807,-135.21134066581726 252.24300527572632,-222.7010316848755 429.4948468208313,-222.7010316848755 c160.20839524269104,0 303.37334418296814,71.58247447013855 399.95287322998047,184.06922006607056 c30.678203344345093,36.359352111816406 47.72164964675903,57.9477174282074 79.53608274459839,96.57952904701233 c96.57952904701233,115.8954348564148 243.15316724777222,189.75036883354187 405.6340219974518,189.75036883354187 c290.87481689453125,0 527.2106056213379,-235.19955897331238 527.2106056213379,-526.0743758678436 c0,-290.87481689453125 -236.33578872680664,-526.0743758678436 -527.2106056213379,-526.0743758678436 z" id="svg_6"/><circle class="fil2" cx="2716.0002546310425" cy="1524.163602590561" r="530.6193237304688" id="svg_7"/></g></g></svg>