<?xml version="1.0" encoding="UTF-8"?><!DOCTYPE svg PUBLIC "-//W3C//DTD SVG 1.1//EN"
    "http://www.w3.org/Graphics/SVG/1.1/DTD/svg11.dtd">
<svg xmlns="http://www.w3.org/2000/svg" xml:space="preserve" width="150px" height="150px"
    version="1.1"
    style="shape-rendering:geometricPrecision; text-rendering:geometricPrecision; image-rendering:optimizeQuality; fill-rule:evenodd; clip-rule:evenodd"
    viewBox="0 0 144 144">
 <g id="Warstwa_x0020_1">
  <metadata id="CorelCorpID_0Corel-Layer" />
     <g id="_244432344">
   <path style="fill:#1A00FF;"
       d="M30 86c3,0 7,2 9,5 1,1 2,1 3,2 2,3 5,4 9,4 4,0 7,-1 10,-4 0,-1 1,-2 2,-2 2,-3 5,-5 9,-5l0 0 0 0c4,0 7,2 10,5 0,0 1,1 1,2 3,3 6,4 10,4 4,0 7,-1 9,-4 1,-1 2,-1 3,-2 2,-3 6,-5 10,-5 6,0 12,6 12,13 0,7 -6,13 -12,13 -4,0 -8,-2 -10,-5 -1,-1 -1,-1 -2,-2 -2,-3 -6,-5 -10,-5 -4,0 -8,2 -10,6 -1,1 -1,1 -2,2 -2,2 -5,4 -9,4l0 0 0 0c-4,0 -7,-2 -9,-4 -1,-1 -1,-1 -2,-2 -2,-4 -6,-6 -10,-6 -4,0 -7,2 -10,5 0,1 -1,1 -2,2 -2,3 -5,5 -9,5 -7,0 -13,-6 -13,-13 0,-7 6,-13 13,-13zm63 -27c-4,0 -7,2 -9,5 -1,1 -2,2 -3,3 -2,2 -5,4 -9,4 -4,0 -8,-2 -10,-5 0,-1 -1,-2 -2,-2 -2,-3 -5,-5 -9,-5 -7,0 -13,6 -13,13 0,7 6,13 13,13 3,0 7,-2 9,-4 1,-1 1,-1 2,-2 2,-3 6,-6 10,-6 4,0 7,2 10,5 0,1 1,1 2,2 2,3 5,5 9,5 7,0 13,-6 13,-13 0,-7 -6,-13 -13,-13z" />
         <circle style="fill:#FF0009;" cx="72" cy="45" r="13" />
  </g>
 </g>
</svg>
