<svg clip-rule="evenodd" fill-rule="evenodd" height="156" image-rendering="optimizeQuality" shape-rendering="geometricPrecision" text-rendering="geometricPrecision" viewBox="0 0 156 156" width="156" xmlns="http://www.w3.org/2000/svg"><path d="m0 0h156v156h-156z" fill="none"/><g fill="#001f7e"><path d="m113.488 32.087c19.519 19.519 19.519 51.458 0 70.976l-35.488 35.489-35.488-35.489c-19.519-19.518-19.519-51.457 0-70.976 19.518-19.518 51.458-19.518 70.976 0zm-8.468 8.468c14.861 14.862 14.861 39.179 0 54.04l-27.02 27.021-27.02-27.021c-14.861-14.861-14.861-39.178 0-54.04 14.861-14.861 39.179-14.861 54.04 0z"/><path d="m46.538 107.09 15.731-15.731c8.652-8.653 22.81-8.653 31.462 0l15.731 15.731-31.462 31.462zm24.369 7.433 3.238-21.429c.761-5.037 6.957-4.964 7.709-.009l3.239 21.438-7.093 7.093z"/><circle cx="78" cy="67.575" r="19.534"/></g></svg>